<svg width="200" height="161" viewBox="0 0 200 161" fill="none" xmlns="http://www.w3.org/2000/svg">
<path d="M56 136.657C77.9865 98.4647 99.6881 60.7656 121.601 22.7026C123.264 25.5852 124.734 28.1409 126.209 30.6919C132.64 41.8446 139.09 52.9835 145.462 64.1685C145.871 64.8868 146.096 66.1669 145.733 66.807C138.562 79.3872 131.726 92.1884 123.953 104.391C110.456 125.578 90.6243 135.934 65.6702 136.647C62.629 136.735 59.5878 136.661 56 136.661L56 136.657Z" fill="#3CEADC" fill-opacity="0.2"/>
<path d="M187 136.233C186.587 136.491 186.522 136.564 186.458 136.56C172.993 136.514 159.496 137.057 146.082 136.256C131.023 135.353 122.18 118.901 129.163 105.432C134.097 95.9137 139.747 86.7732 145.081 77.4624C146.33 75.2797 147.598 73.1063 149.119 70.4678C161.867 92.5982 174.404 114.37 187 136.233Z" fill="#3CEADC" fill-opacity="0.2"/>
<circle cx="68" cy="68.7026" r="67.5" stroke="#3CEADC"/>
<circle cx="149.5" cy="114.203" r="22" stroke="#3CEADC"/>
<circle cx="140.5" cy="66.2026" r="5" stroke="#3CEADC"/>
<line x1="108.432" y1="0.450701" x2="199.432" y2="156.451" stroke="#3CEADC"/>
<line x1="44.567" y1="156.656" x2="134.868" y2="0.250028" stroke="#3CEADC"/>
<line x1="200" y1="137.203" x2="38" y2="137.203" stroke="#3CEADC"/>
<path d="M187.5 5.41771L97.8509 160.695" stroke="#3CEADC"/>
<path d="M181.251 5.41771L91.6019 160.695" stroke="#3CEADC"/>
</svg>
